<?xml version="1.0" encoding="UTF-8"?>
<!-- Generated by Pixelmator Pro Trial 3.6.5 -->
<svg width="34" height="48" viewBox="0 0 34 48" xmlns="http://www.w3.org/2000/svg">
    <g id="logo-group">
        <g id="logo-center">
            <g id="title">
                <path id="path21357" fill="#9ab0de" stroke="none" d="M 33.369049 17.029877 C 33.369049 13.922363 32.651917 11.113647 31.217682 8.603729 C 29.783447 6.093811 27.751587 4.061951 25.241669 2.627716 C 22.73175 1.193481 19.923035 0.416595 16.875275 0.416595 L 16.63623 0.416595 L 16.516724 0.416595 L 3.309753 0.416595 C 2.473114 0.416595 1.815735 0.715393 1.277924 1.253235 C 0.680328 1.85083 0.441284 2.508209 0.441284 3.285095 L 0.441284 16.013947 L 0.441284 17.029877 L 0.441284 44.280426 C 0.441284 45.236603 0.680328 45.953735 1.277924 46.491547 C 1.815735 47.089172 2.532867 47.328186 3.489044 47.328186 C 4.325684 47.328186 5.042786 47.089172 5.640381 46.491547 C 6.237976 45.953735 6.536804 45.236603 6.536804 44.280426 L 6.536804 28.145233 C 7.911285 29.878265 9.584564 31.192993 11.616394 32.14917 C 13.58847 33.105316 15.739838 33.583405 18.070465 33.583405 C 20.938965 33.583405 23.508636 32.866272 25.839264 31.432037 C 28.169922 29.997803 30.022461 28.025726 31.337189 25.515808 C 32.651917 23.00589 33.369049 20.13739 33.369049 17.029877 Z M 27.512573 17.029877 C 27.512573 19.181244 27.034454 21.093567 26.078339 22.766846 C 25.122162 24.440125 23.867218 25.814606 22.253693 26.770752 C 20.640167 27.726929 18.847351 28.204987 16.875275 28.204987 C 14.843445 28.204987 13.050629 27.726929 11.437103 26.770752 C 9.823578 25.814606 8.568634 24.440125 7.672211 22.766846 C 6.716095 21.093567 6.29776 19.181244 6.29776 17.029877 C 6.29776 14.938293 6.716095 13.02597 7.672211 11.292908 C 8.568634 9.619629 9.823578 8.245148 11.437103 7.289001 C 13.050629 6.332855 14.843445 5.795013 16.875275 5.795013 C 18.847351 5.795013 20.640167 6.332855 22.253693 7.289001 C 23.867218 8.245148 25.122162 9.619629 26.078339 11.292908 C 27.034454 13.02597 27.512573 14.938293 27.512573 17.029877 Z"/>
            </g>
        </g>
    </g>
</svg>
