<?xml version="1.0" encoding="UTF-8"?>
<!-- Generated by Pixelmator Pro Trial 3.6.14 -->
<svg width="1200" height="1200" viewBox="0 0 1200 1200" xmlns="http://www.w3.org/2000/svg">
    <g id="Group">
        <g id="logo-group">
            <g id="logo-center">
                <g id="title">
                    <path id="path21357" fill="#9ab0de" stroke="none" d="M 998 434.751526 C 998 359.41687 980.613525 291.325867 945.841309 230.478577 C 911.069153 169.631226 861.807861 120.373413 800.956299 85.603638 C 740.104797 50.833862 672.009094 32 598.117859 32 L 592.322388 32 L 589.425049 32 L 269.229584 32 C 248.94574 32 233.007965 39.243652 219.96904 52.282471 C 205.480667 66.769775 199.685181 82.706421 199.685181 101.540283 L 199.685181 410.12262 L 199.685181 434.751526 L 199.685181 1095.379639 C 199.685181 1118.559937 205.480667 1135.94519 219.96904 1148.983276 C 233.007965 1163.471313 250.394424 1169.265625 273.576385 1169.265625 C 293.860229 1169.265625 311.245972 1163.471313 325.734314 1148.983276 C 340.222656 1135.94519 347.46759 1118.559937 347.46759 1095.379639 L 347.46759 704.218262 C 380.791077 746.231689 421.358795 778.10437 470.619324 801.284668 C 518.431213 824.464294 570.589844 836.054443 627.094604 836.054443 C 696.639709 836.054443 758.939941 818.669189 815.444702 783.899414 C 871.950134 749.129639 916.863892 701.321106 948.738708 640.473816 C 980.613525 579.626465 998 510.086182 998 434.751526 Z M 856.013123 434.751526 C 856.013123 486.906555 844.421387 533.266541 821.240906 573.831421 C 798.05896 614.39624 767.633545 647.717468 728.514526 670.897095 C 689.395569 694.077393 645.929749 705.66687 598.117859 705.66687 C 548.857361 705.66687 505.391541 694.077393 466.272522 670.897095 C 427.153534 647.717468 396.728149 614.39624 374.994873 573.831421 C 351.814392 533.266541 341.672089 486.906555 341.672089 434.751526 C 341.672089 384.045837 351.814392 337.685852 374.994873 295.671631 C 396.728149 255.106812 427.153534 221.785583 466.272522 198.605957 C 505.391541 175.426392 548.857361 162.387573 598.117859 162.387573 C 645.929749 162.387573 689.395569 175.426392 728.514526 198.605957 C 767.633545 221.785583 798.05896 255.106812 821.240906 295.671631 C 844.421387 337.685852 856.013123 384.045837 856.013123 434.751526 Z"/>
                </g>
            </g>
        </g>
        <path id="Circle" fill="#f97ba0" fill-rule="evenodd" stroke="none" d="M 999 1066.5 C 999 1010.443115 953.556885 965 897.5 965 C 841.443115 965 796 1010.443115 796 1066.5 C 796 1122.556885 841.443115 1168 897.5 1168 C 953.556885 1168 999 1122.556885 999 1066.5 Z"/>
    </g>
</svg>
