<?xml version="1.0" encoding="UTF-8"?>
<!-- Generated by Pixelmator Pro Trial 3.6.5 -->
<svg width="360" height="62" viewBox="0 0 360 62" xmlns="http://www.w3.org/2000/svg">
    <g id="logo-group">
        <g id="logo-center">
            <g id="title">
                <path id="path21357" fill="#9ab0de" stroke="none" d="M 33.369049 31.029877 C 33.369049 27.922363 32.651917 25.113647 31.217682 22.603729 C 29.783447 20.093811 27.751587 18.061951 25.241669 16.627716 C 22.73175 15.193481 19.923035 14.416595 16.875275 14.416595 L 16.63623 14.416595 L 16.516724 14.416595 L 3.309753 14.416595 C 2.473114 14.416595 1.815735 14.715393 1.277924 15.253235 C 0.680328 15.85083 0.441284 16.508209 0.441284 17.285095 L 0.441284 30.013947 L 0.441284 31.029877 L 0.441284 58.280426 C 0.441284 59.236603 0.680328 59.953735 1.277924 60.491547 C 1.815735 61.089172 2.532867 61.328186 3.489044 61.328186 C 4.325684 61.328186 5.042786 61.089172 5.640381 60.491547 C 6.237976 59.953735 6.536804 59.236603 6.536804 58.280426 L 6.536804 42.145233 C 7.911285 43.878265 9.584564 45.192993 11.616394 46.14917 C 13.58847 47.105316 15.739838 47.583405 18.070465 47.583405 C 20.938965 47.583405 23.508636 46.866272 25.839264 45.432037 C 28.169922 43.997803 30.022461 42.025726 31.337189 39.515808 C 32.651917 37.00589 33.369049 34.13739 33.369049 31.029877 Z M 27.512573 31.029877 C 27.512573 33.181244 27.034454 35.093567 26.078339 36.766846 C 25.122162 38.440125 23.867218 39.814606 22.253693 40.770752 C 20.640167 41.726929 18.847351 42.204987 16.875275 42.204987 C 14.843445 42.204987 13.050629 41.726929 11.437103 40.770752 C 9.823578 39.814606 8.568634 38.440125 7.672211 36.766846 C 6.716095 35.093567 6.29776 33.181244 6.29776 31.029877 C 6.29776 28.938293 6.716095 27.02597 7.672211 25.292908 C 8.568634 23.619629 9.823578 22.245148 11.437103 21.289001 C 13.050629 20.332855 14.843445 19.795013 16.875275 19.795013 C 18.847351 19.795013 20.640167 20.332855 22.253693 21.289001 C 23.867218 22.245148 25.122162 23.619629 26.078339 25.292908 C 27.034454 27.02597 27.512573 28.938293 27.512573 31.029877 Z"/>
                <path id="path21359" fill="#a3abd8" stroke="none" d="M 71.025299 32.404358 C 71.503387 31.92627 71.802185 31.268921 71.802185 30.492035 C 71.802185 27.384521 71.20459 24.575806 70.009369 22.125641 C 68.814178 19.735229 67.081146 17.822906 64.870026 16.448456 C 62.599121 15.133728 59.969696 14.416595 56.921936 14.416595 C 53.814423 14.416595 51.005707 15.133728 48.555542 16.567963 C 46.105408 18.002197 44.193054 19.974274 42.818573 22.484192 C 41.444122 24.99411 40.786743 27.86261 40.786743 31.029877 C 40.786743 34.256927 41.503876 37.065643 42.93811 39.575562 C 44.372345 42.08548 46.404175 44.057556 49.03363 45.491791 C 51.603302 46.926025 54.531525 47.583405 57.818359 47.583405 C 59.611145 47.583405 61.523468 47.284607 63.555298 46.567474 C 65.587128 45.910126 67.260406 45.013733 68.634888 43.938049 C 69.232513 43.459961 69.591064 42.862366 69.591064 42.145233 C 69.591064 41.428131 69.232513 40.710999 68.515381 40.113403 C 68.037292 39.754852 67.439697 39.515808 66.722595 39.515808 C 65.945709 39.515808 65.288361 39.754852 64.750519 40.173157 C 63.913879 40.830505 62.838165 41.368347 61.523468 41.786682 C 60.20874 42.264771 59.01355 42.444031 57.818359 42.444031 C 54.770599 42.444031 52.200897 41.607391 50.109283 39.874359 C 48.0177 38.20108 46.762756 35.930206 46.344421 33.12149 L 69.053223 33.12149 C 69.830109 33.12149 70.487457 32.882446 71.025299 32.404358 Z M 49.810516 21.94635 C 51.603302 20.392609 53.993713 19.555969 56.921936 19.555969 C 59.551392 19.555969 61.643005 20.392609 63.316254 21.94635 C 64.929779 23.559875 65.945709 25.711243 66.30426 28.340668 L 46.404175 28.340668 C 46.882263 25.711243 48.0177 23.559875 49.810516 21.94635 Z"/>
                <path id="path21361" fill="#aba6d3" stroke="none" d="M 79.218018 1.508453 C 78.620422 2.106049 78.381409 2.823151 78.381409 3.65979 L 78.381409 36.288757 C 78.381409 38.440125 78.739929 40.352448 79.516815 42.025726 C 80.233948 43.699005 81.309631 45.013733 82.684113 45.969879 C 84.058594 46.926025 85.612335 47.34436 87.345398 47.34436 L 87.464905 47.34436 C 88.660126 47.34436 89.616272 47.105316 90.393127 46.507721 C 91.11026 45.969879 91.528595 45.252747 91.528595 44.356354 C 91.528595 43.519714 91.229767 42.802612 90.751709 42.204987 C 90.273651 41.667145 89.616272 41.368347 88.839386 41.368347 L 87.345398 41.368347 C 86.449005 41.368347 85.731873 40.890289 85.194031 39.934113 C 84.596405 38.977966 84.357391 37.782745 84.357391 36.288757 L 84.357391 3.65979 C 84.357391 2.823151 84.058594 2.106049 83.520752 1.508453 C 82.923157 0.970612 82.206024 0.671814 81.369385 0.671814 C 80.472992 0.671814 79.755859 0.970612 79.218018 1.508453 Z"/>
                <path id="path21363" fill="#b4a2cd" stroke="none" d="M 124.365784 32.404358 C 124.843872 31.92627 125.14267 31.268921 125.14267 30.492035 C 125.14267 27.384521 124.545044 24.575806 123.349854 22.125641 C 122.154663 19.735229 120.421631 17.822906 118.21051 16.448456 C 115.939606 15.133728 113.31015 14.416595 110.262421 14.416595 C 107.154907 14.416595 104.346161 15.133728 101.896027 16.567963 C 99.445862 18.002197 97.533539 19.974274 96.159058 22.484192 C 94.784576 24.99411 94.127197 27.86261 94.127197 31.029877 C 94.127197 34.256927 94.84433 37.065643 96.278564 39.575562 C 97.712799 42.08548 99.744659 44.057556 102.374084 45.491791 C 104.943787 46.926025 107.87204 47.583405 111.158813 47.583405 C 112.95163 47.583405 114.863922 47.284607 116.895782 46.567474 C 118.927612 45.910126 120.600922 45.013733 121.975372 43.938049 C 122.572968 43.459961 122.931519 42.862366 122.931519 42.145233 C 122.931519 41.428131 122.572968 40.710999 121.855865 40.113403 C 121.377777 39.754852 120.780151 39.515808 120.063049 39.515808 C 119.286163 39.515808 118.628815 39.754852 118.090973 40.173157 C 117.254333 40.830505 116.17865 41.368347 114.863922 41.786682 C 113.549225 42.264771 112.354034 42.444031 111.158813 42.444031 C 108.111053 42.444031 105.541382 41.607391 103.449799 39.874359 C 101.358185 38.20108 100.10321 35.930206 99.684906 33.12149 L 122.393677 33.12149 C 123.170563 33.12149 123.827942 32.882446 124.365784 32.404358 Z M 103.15097 21.94635 C 104.943787 20.392609 107.334167 19.555969 110.262421 19.555969 C 112.891846 19.555969 114.983459 20.392609 116.656738 21.94635 C 118.270264 23.559875 119.286163 25.711243 119.644745 28.340668 L 99.744659 28.340668 C 100.222748 25.711243 101.358185 23.559875 103.15097 21.94635 Z"/>
                <path id="path21365" fill="#bd9dc7" stroke="none" d="M 154.996521 16.567963 C 152.486572 15.133728 149.677887 14.416595 146.570343 14.416595 C 143.343323 14.416595 140.534576 15.133728 138.024689 16.567963 C 135.51474 18.002197 133.542694 19.91452 132.168182 22.424438 C 130.733948 24.934357 130.076569 27.802826 130.076569 31.029877 C 130.076569 34.256927 130.674194 37.065643 131.988922 39.575562 C 133.303619 42.08548 135.096436 44.057556 137.427063 45.491791 C 139.75769 46.926025 142.387146 47.583405 145.375153 47.583405 C 147.885071 47.583405 150.215698 46.985809 152.247559 45.730835 C 154.279388 44.535645 155.892914 42.802612 157.147888 40.591492 L 157.147888 43.519714 C 157.147888 46.029633 156.6698 48.240753 155.713623 50.033569 C 154.757477 51.826355 153.442749 53.200836 151.888977 54.157013 C 150.275452 55.113159 148.482697 55.531494 146.570343 55.531494 C 144.47876 55.531494 142.62619 55.172913 141.012695 54.455811 C 139.339386 53.738678 138.024689 52.662994 136.948975 51.22876 C 136.291626 50.39212 135.454987 49.973785 134.49881 49.973785 C 133.901215 49.973785 133.363403 50.153076 132.825562 50.511627 C 131.988922 51.109253 131.570587 51.826355 131.570587 52.662994 C 131.570587 53.26059 131.749878 53.798431 132.227936 54.336273 C 133.901215 56.48764 135.933075 58.101166 138.442993 59.236603 C 140.893158 60.37204 143.582336 60.909882 146.450836 60.909882 C 149.618103 60.909882 152.486572 60.192749 154.996521 58.698761 C 157.506409 57.204773 159.478516 55.172913 160.91275 52.543488 C 162.287231 49.973785 163.004364 47.105316 163.004364 43.938049 L 163.004364 31.029877 C 163.004364 27.802826 162.287231 24.934357 160.852997 22.424438 C 159.418762 19.91452 157.506409 18.002197 154.996521 16.567963 Z M 152.008514 40.770752 C 150.394989 41.726929 148.602173 42.204987 146.570343 42.204987 C 144.538513 42.204987 142.685944 41.726929 141.072449 40.770752 C 139.458923 39.814606 138.203949 38.499878 137.307556 36.826599 C 136.35141 35.15332 135.933075 33.181244 135.933075 31.029877 C 135.933075 28.87851 136.35141 26.966187 137.307556 25.233154 C 138.203949 23.559875 139.458923 22.185394 141.072449 21.229248 C 142.685944 20.273071 144.538513 19.795013 146.570343 19.795013 C 148.602173 19.795013 150.394989 20.273071 152.008514 21.229248 C 153.62204 22.185394 154.876984 23.559875 155.773407 25.233154 C 156.6698 26.966187 157.147888 28.87851 157.147888 31.029877 C 157.147888 33.181244 156.6698 35.15332 155.773407 36.826599 C 154.876984 38.499878 153.62204 39.814606 152.008514 40.770752 Z"/>
                <path id="path21367" fill="#c598c2" stroke="none" d="M 193.110352 15.253235 C 191.9151 14.65564 190.241882 14.297089 188.150208 14.297089 C 186.118408 14.297089 184.265869 14.715393 182.532776 15.492279 C 180.73999 16.328918 179.305756 17.404602 178.110565 18.779083 L 178.110565 17.643646 C 178.110565 15.67157 177.094635 14.65564 175.122559 14.65564 C 174.166412 14.65564 173.389526 14.954437 172.911438 15.432526 C 172.373596 15.970367 172.134552 16.687469 172.134552 17.643646 L 172.134552 44.356354 C 172.134552 45.372284 172.373596 46.14917 172.911438 46.627228 C 173.389526 47.105316 174.166412 47.34436 175.122559 47.34436 C 176.078705 47.34436 176.855591 47.105316 177.333679 46.567474 C 177.811768 46.089386 178.110565 45.312531 178.110565 44.356354 L 178.110565 26.906433 C 178.110565 24.695313 178.947174 22.902527 180.73999 21.587799 C 182.473022 20.273071 184.803711 19.615723 187.67218 19.615723 C 188.628296 19.615723 189.942993 19.795013 191.55658 20.034027 C 191.9151 20.153564 192.213928 20.153564 192.453003 20.153564 C 193.648193 20.153564 194.484802 19.555969 194.843384 18.241241 C 194.843384 18.121735 194.903076 17.942444 194.903076 17.643646 C 194.903076 16.687469 194.305542 15.910583 193.110352 15.253235 Z"/>
                <path id="path21369" fill="#ce93bc" stroke="none" d="M 202.631775 15.492279 C 202.034119 16.089874 201.795166 16.807007 201.795166 17.7034 L 201.795166 44.2966 C 201.795166 45.192993 202.034119 45.910126 202.631775 46.507721 C 203.22937 47.105316 203.946472 47.34436 204.842896 47.34436 C 205.739319 47.34436 206.45636 47.105316 207.054016 46.507721 C 207.591858 45.910126 207.890625 45.192993 207.890625 44.2966 L 207.890625 17.7034 C 207.890625 16.807007 207.591858 16.089874 207.054016 15.492279 C 206.45636 14.954437 205.739319 14.65564 204.842896 14.65564 C 203.946472 14.65564 203.22937 14.954437 202.631775 15.492279 Z"/>
                <path id="path21371" fill="#d68eb7" stroke="none" d="M 248.093262 21.408508 C 246.838318 19.137634 245.105225 17.344849 242.953918 16.149628 C 240.862305 15.073944 238.591431 14.476349 236.081482 14.416595 C 236.021729 14.416595 235.902222 14.356842 235.902222 14.356842 L 222.15741 14.356842 C 221.32074 14.356842 220.663391 14.65564 220.125549 15.193481 C 219.527954 15.791077 219.28894 16.448456 219.28894 17.225311 C 219.28894 17.285095 219.28894 17.404602 219.28894 17.464355 C 219.28894 17.583893 219.28894 17.643646 219.28894 17.7034 L 219.28894 44.356354 C 219.28894 45.252747 219.527954 45.969879 220.125549 46.567474 C 220.723206 47.16507 221.440308 47.404114 222.33667 47.404114 C 223.233093 47.404114 223.950195 47.16507 224.547791 46.567474 C 225.085632 45.969879 225.38446 45.252747 225.38446 44.356354 L 225.38446 27.504028 C 225.38446 26.069794 225.742981 24.81485 226.519897 23.619629 C 227.296753 22.484192 228.372437 21.587799 229.746948 20.870667 C 231.12146 20.213318 232.675171 19.854767 234.34845 19.854767 C 237.216919 19.854767 239.487793 20.691406 241.220825 22.364685 C 242.953918 24.037964 243.850281 26.488129 243.850281 29.655396 L 243.850281 44.356354 C 243.850281 45.252747 244.089294 45.969879 244.686951 46.567474 C 245.284546 47.16507 246.001648 47.404114 246.898071 47.404114 C 247.73468 47.404114 248.451843 47.16507 249.049438 46.567474 C 249.647034 45.969879 249.945801 45.252747 249.945801 44.356354 L 249.945801 29.655396 C 249.945801 26.428345 249.288452 23.679413 248.093262 21.408508 Z"/>
                <path id="path21373" fill="#df89b1" stroke="none" d="M 261.458008 15.492279 C 260.860413 16.089874 260.621399 16.807007 260.621399 17.7034 L 260.621399 44.2966 C 260.621399 45.192993 260.860413 45.910126 261.458008 46.507721 C 262.055603 47.105316 262.772705 47.34436 263.669128 47.34436 C 264.565552 47.34436 265.282654 47.105316 265.880249 46.507721 C 266.418091 45.910126 266.716919 45.192993 266.716919 44.2966 L 266.716919 17.7034 C 266.716919 16.807007 266.418091 16.089874 265.880249 15.492279 C 265.282654 14.954437 264.565552 14.65564 263.669128 14.65564 C 262.772705 14.65564 262.055603 14.954437 261.458008 15.492279 Z"/>
                <path id="path21375" fill="#e885ab" stroke="none" d="M 282.716675 41.24884 C 281.880066 40.412201 280.923889 39.993866 279.848206 39.993866 C 278.712769 39.993866 277.756592 40.412201 276.919983 41.24884 C 276.083313 42.08548 275.724731 43.041626 275.724731 44.177094 C 275.724731 45.312531 276.083313 46.268677 276.919983 47.105316 C 277.756592 47.941956 278.712769 48.300507 279.848206 48.300507 C 280.983643 48.300507 281.939819 47.941956 282.776489 47.105316 C 283.553345 46.268677 283.97168 45.312531 283.97168 44.177094 C 283.97168 43.041626 283.553345 42.08548 282.716675 41.24884 Z"/>
                <path id="path21377" fill="#f080a6" stroke="none" d="M 318.589539 19.795013 C 315.481995 16.209412 311.537842 14.416595 306.876587 14.416595 C 303.769043 14.416595 300.960327 15.133728 298.510132 16.567963 C 296.000244 18.002197 294.087891 19.974274 292.71344 22.484192 C 291.338928 24.99411 290.68158 27.86261 290.68158 31.029877 C 290.68158 34.13739 291.338928 37.00589 292.773193 39.515808 C 294.207397 42.025726 296.179504 43.997803 298.689453 45.432037 C 301.199341 46.866272 304.008057 47.583405 307.175354 47.583405 C 311.478088 47.583405 315.063721 46.268677 317.93219 43.579468 C 318.410217 43.10141 318.649231 42.563568 318.649231 41.965973 C 318.649231 41.189087 318.230957 40.471954 317.513794 39.814606 C 317.035767 39.456055 316.497925 39.276764 315.960083 39.276764 C 315.242981 39.276764 314.466064 39.575562 313.748962 40.113403 C 312.075684 41.547638 309.864563 42.204987 307.175354 42.204987 C 305.08374 42.204987 303.231201 41.726929 301.617676 40.770752 C 300.00415 39.814606 298.749207 38.499878 297.852783 36.826599 C 296.95636 35.15332 296.538086 33.181244 296.538086 31.029877 C 296.538086 27.683319 297.494202 24.934357 299.406555 22.902527 C 301.318909 20.870667 303.769043 19.795013 306.876587 19.795013 C 308.370544 19.795013 309.685242 20.093811 310.880432 20.571869 C 312.075684 21.049957 313.151367 21.826843 314.167297 22.902527 C 314.764832 23.619629 315.541748 23.97821 316.497925 23.97821 C 316.975952 23.97821 317.454102 23.858673 317.872375 23.559875 C 318.709045 22.96228 319.187073 22.245148 319.187073 21.348755 C 319.187073 20.75116 318.948059 20.273071 318.589539 19.795013 Z"/>
                <path id="path21379" fill="#f97ba0" stroke="none" d="M 359.558716 31.029877 C 359.558716 27.982117 358.78186 25.113647 357.347595 22.603729 C 355.913391 20.093811 353.941284 18.061951 351.431335 16.627716 C 348.921448 15.193481 346.172485 14.416595 343.124695 14.416595 C 340.017212 14.416595 337.208496 15.193481 334.698608 16.627716 C 332.188599 18.061951 330.216553 20.093811 328.782349 22.603729 C 327.348083 25.113647 326.630981 27.922363 326.630981 31.029877 C 326.630981 34.13739 327.28833 37.00589 328.603088 39.515808 C 329.917786 42.025726 331.770325 43.997803 334.100952 45.432037 C 336.491333 46.926025 339.061035 47.643158 341.929504 47.643158 L 342.407593 47.643158 L 356.690247 47.643158 C 357.467163 47.643158 358.124512 47.34436 358.722107 46.806519 C 359.259949 46.268677 359.558716 45.611328 359.558716 44.774689 L 359.558716 44.356354 Z M 333.861938 36.766846 C 332.905762 35.093567 332.487488 33.181244 332.487488 31.029877 C 332.487488 28.938293 332.905762 27.02597 333.861938 25.292908 C 334.818115 23.619629 336.073059 22.245148 337.686584 21.289001 C 339.30011 20.332855 341.092896 19.795013 343.124695 19.795013 C 345.096802 19.795013 346.889587 20.332855 348.503113 21.289001 C 350.116638 22.245148 351.371582 23.619629 352.327759 25.292908 C 353.224182 27.02597 353.702271 28.938293 353.702271 31.029877 C 353.702271 33.181244 353.224182 35.093567 352.327759 36.766846 C 351.371582 38.440125 350.116638 39.814606 348.503113 40.770752 C 346.889587 41.726929 345.096802 42.204987 343.124695 42.204987 C 341.092896 42.204987 339.30011 41.726929 337.686584 40.770752 C 336.073059 39.814606 334.818115 38.440125 333.861938 36.766846 Z"/>
            </g>
        </g>
    </g>
</svg>
